<svg xmlns="http://www.w3.org/2000/svg" height="800" width="1200" viewBox="-84.72075 -53.42475 734.2465 320.5485"><path d="M308.129 55.42c-22.739 0-36.608 9.316-44.859 18.83h-.693V59.374h-29.114v152.54h32.599v-90.549c.202-8.027 3.155-37.212 35.495-37.212 31.8 0 39.032 22.184 39.032 39.5v59.546c0 7.911 2.093 15.611 8.549 22.143 8.006 8.1 24.067 6.554 24.067 6.554v-87.653c0-29.934-18.607-68.822-65.076-68.822zm160.862 2.115c-43.124 0-78.081 34.958-78.081 78.082 0 43.124 34.957 78.082 78.081 78.082 17.564 0 33.774-5.8 46.818-15.589 1.44 2.859 3.708 6.139 7.335 9.26 9.076 7.808 20.548 4.525 20.548 4.525V59.391h-29.2v12.78a77.727 77.727 0 00-45.5-14.636zm.642 28.993c27.23 0 49.297 22.067 49.297 49.297 0 27.23-22.067 49.297-49.297 49.297-27.23 0-49.315-22.067-49.315-49.297 0-27.23 22.085-49.297 49.315-49.297zM215.634 59.385h-37.917L62.353 211.898h39.593z" fill="#8c9da7"/><g transform="translate(165.943 -319.083) scale(.55488)" fill="#f4793b"><circle r="13.887" cy="517.219" cx="-128.223" transform="translate(-7.663 153.277) scale(1.04854)"/><circle r="13.887" cy="517.219" cx="-128.223" transform="translate(58.405 62.656) scale(1.28913)"/><path d="M-68.469 748.987c-11.898 0-21.531 9.665-21.531 21.563 0 4.574 1.443 8.793 3.875 12.281h-.031s37.084 55.403 54.5 83.812c15.954 26.025 24.677 53.815 45.781 79.313 5.268 6.365 13.372 10.42 21.344 12.594 12.632 3.445 39.281 0 39.281 0s-22.078-56.803-56.063-110.22C-3.97 812.719-42.1 768.14-51.28 757.55c-.103-.12-.06-.077-.157-.188-.558-.721-1.136-1.418-1.78-2.062l-.094-.094a21.518 21.518 0 00-15.157-6.219zM-299.063 575.05s44.629 35.474 65.002 52.884c20.9 17.861 45.723 41.422 50.655 46.397a11.22 11.22 0 001.687 1.719c.075.061.143.128.219.187a11.182 11.182 0 006.906 2.375c6.18 0 11.188-5.007 11.188-11.187 0-3.71-1.815-6.995-4.594-9.032 0 0-.496-.319-.531-.343-1.525-1.052-28.098-19.728-51.773-34.98-25.673-16.54-78.758-48.02-78.758-48.02z"/></g><path d="M-412.866 1489.386v25.36h3.8v-25.36h9.52v-3.2h-22.839v3.2zm16.569-3.2v28.56h3.6v-23.76h.08l8.92 23.76h3.24l8.92-23.76h.08v23.76h3.6v-28.56h-5.2l-9.04 24-9-24z" transform="matrix(.15429 0 0 .14909 621.48 -14.238)" font-weight="400" font-size="40" font-family="Helvetica Neue" text-anchor="middle" fill="#8c9da7" stroke="#8c9da7" stroke-width="1.048"/></svg>